<svg xmlns="http://www.w3.org/2000/svg" viewBox="0 0 11.34 11.34"><g id="Layer_3" data-name="Layer 3"><path d="M10.09,1.24a3,3,0,0,1-.12.85,2.74,2.74,0,0,1-.74,1.23c-.53.52-1.06,1-1.6,1.55S6.44,6,5.85,6.54L4.4,7.91,4.32,8,4,7.64l.27-.25L8,3.69c.34-.34.67-.67,1-1a3.42,3.42,0,0,0,.37-.61,2.16,2.16,0,0,0-.65.43L5.92,5.25,3.79,7.33l-.07.07-.43-.46.38-.39,4.46-4.4A3.31,3.31,0,0,1,10,1.25Z"/><path d="M2,2a2.9,2.9,0,0,0,.65,1L4.42,4.78l.07.07-.38.42L2.82,4l-.76-.76a2.79,2.79,0,0,1-.8-1.95v0s0,0,0,0a4.31,4.31,0,0,1,.49.11,3.64,3.64,0,0,1,1.59,1c.6.62,1.21,1.22,1.82,1.83l0,0-.45.46,0,0c-.66-.66-1.31-1.32-2-2A4.24,4.24,0,0,0,2,2Z"/><path d="M2.68,7.68l-.4-.36-.11,0a2.11,2.11,0,0,1-.33-.18c-.1-.08-.09-.19,0-.29a4,4,0,0,1,.35-.36.23.23,0,0,1,.4.08.48.48,0,0,1,0,.15.32.32,0,0,0,.13.3L4.08,8.29a.22.22,0,0,0,.2.09.54.54,0,0,1,.22,0,.25.25,0,0,1,.11.4l-.3.32c-.16.15-.36.13-.43-.09a2.16,2.16,0,0,0-.53-.67.27.27,0,0,0-.08.07l-.63.63a.1.1,0,0,0,0,.09A.82.82,0,0,1,2,10.1a.84.84,0,0,1-1-.64.81.81,0,0,1,.6-1,.44.44,0,0,1,.2,0A.26.26,0,0,0,2,8.35ZM1.79,9a.3.3,0,0,0-.3.31.32.32,0,0,0,.31.31.33.33,0,0,0,.31-.31A.31.31,0,0,0,1.79,9Z"/><path d="M8.68,7.72l.73.71a.17.17,0,0,0,.1,0,.81.81,0,0,1,.86.66.85.85,0,0,1-.61,1,.82.82,0,0,1-1-.86A.2.2,0,0,0,8.66,9L8,8.38l-.39.43a.27.27,0,0,0,0,.11,1.14,1.14,0,0,1-.12.22.22.22,0,0,1-.36,0c-.11-.1-.21-.2-.31-.31a.24.24,0,0,1,.06-.39,1.23,1.23,0,0,1,.29-.08.29.29,0,0,0,.13-.05L8.69,6.88a.17.17,0,0,0,0-.11.39.39,0,0,1,.1-.33.19.19,0,0,1,.3,0c.13.12.25.24.37.37s.1.21,0,.3a1.92,1.92,0,0,1-.31.18.46.46,0,0,0-.1,0ZM9.85,9.27A.3.3,0,0,0,9.54,9a.32.32,0,0,0-.31.31.34.34,0,0,0,.31.31A.32.32,0,0,0,9.85,9.27Z"/><path d="M6.79,6.5,7.22,6l.92.89-.45.41Z"/><path d="M6.94,7.94l-.32.37-.91-.89L6,7.09Z"/></g></svg>