<svg xmlns="http://www.w3.org/2000/svg" viewBox="0 0 11.34 11.34"><defs><style>.cls-1{fill:none;stroke:#231f20;stroke-miterlimit:10;}</style></defs><g id="Layer_3" data-name="Layer 3"><path d="M8.74,2.7a2.12,2.12,0,0,1-.08.57,1.79,1.79,0,0,1-.5.82l-1.07,1L5.9,6.25l-1,.92s0,0,0,0L4.64,7l.18-.17L7.33,4.34c.22-.22.45-.44.66-.68a2.8,2.8,0,0,0,.25-.41,1.4,1.4,0,0,0-.44.29L5.94,5.39,4.52,6.78l0,0-.29-.31.25-.26,3-2.95a2.27,2.27,0,0,1,1.23-.6Z"/><path d="M3.31,3.22a2.19,2.19,0,0,0,.44.65l1.19,1.2,0,0-.26.28-.87-.85-.5-.5a1.89,1.89,0,0,1-.54-1.31v0l0,0a2,2,0,0,1,.33.08,2.38,2.38,0,0,1,1.07.63c.4.42.81.82,1.21,1.23l0,0L5.18,5l0,0L3.84,3.61A2.34,2.34,0,0,0,3.31,3.22Z"/><path d="M3.77,7c-.09-.08-.18-.17-.27-.24s0,0-.07,0a1.55,1.55,0,0,1-.22-.12c-.07-.06-.06-.13,0-.2l.23-.24a.16.16,0,0,1,.27.06.19.19,0,0,1,0,.1c0,.09,0,.14.09.19l.88.89a.22.22,0,0,0,.14.06.32.32,0,0,1,.14,0,.16.16,0,0,1,.07.27L4.87,8c-.11.1-.24.09-.29,0a1.47,1.47,0,0,0-.36-.46s0,0,0,0L3.74,8l0,.06a.55.55,0,0,1-.44.62A.56.56,0,0,1,3,7.55a.32.32,0,0,1,.14,0,.2.2,0,0,0,.16-.07Zm-.59.86A.21.21,0,0,0,3,8.09a.21.21,0,0,0,.42,0A.21.21,0,0,0,3.18,7.88Z"/><path d="M7.8,7l.48.48.07,0A.54.54,0,0,1,8.93,8a.57.57,0,0,1-.41.65.55.55,0,0,1-.69-.57.12.12,0,0,0,0-.13l-.46-.44-.26.28,0,.08A1,1,0,0,1,7,8,.16.16,0,0,1,6.7,8L6.5,7.8a.16.16,0,0,1,0-.26.65.65,0,0,1,.2,0l.09,0c.33-.32.66-.64,1-1a.11.11,0,0,0,0-.08.25.25,0,0,1,.06-.22.14.14,0,0,1,.21,0l.24.25a.12.12,0,0,1,0,.2,1.43,1.43,0,0,1-.21.12l-.07,0C8,6.86,7.89,7,7.8,7Zm.78,1a.21.21,0,1,0-.41,0,.22.22,0,0,0,.2.2A.2.2,0,0,0,8.58,8.08Z"/><path d="M6.53,6.23l.29-.31.61.59-.3.28Z"/><path d="M6.94,7l-.21.24-.62-.59.21-.22Z"/><circle class="cls-1" cx="5.78" cy="5.67" r="4.02"/><line class="cls-1" x1="2.16" y1="4.55" x2="9.93" y2="6.79"/></g></svg>