<svg xmlns="http://www.w3.org/2000/svg" viewBox="0 0 11.34 11.34"><g id="Layer_3" data-name="Layer 3"><path d="M4.75,2.87a2,2,0,0,1,1.49.69,1.09,1.09,0,0,1,.13.17.06.06,0,0,1,0,.09l-.3.34-.59.69-.56.64-.57.67-.42.48a.08.08,0,0,1-.1,0,1.94,1.94,0,0,1-.89-.92,1.72,1.72,0,0,1-.2-.8,2,2,0,0,1,.45-1.32A1.9,1.9,0,0,1,4.14,3,1.74,1.74,0,0,1,4.75,2.87Z"/><path d="M9,10A1.88,1.88,0,0,1,7.22,8.66a1.92,1.92,0,0,1,.39-1.78,1.76,1.76,0,0,1,.66-.48,1.67,1.67,0,0,1,.54-.15l.2,0s0,0,.05,0,0,0,0,0a1.67,1.67,0,0,0-.33.5,2.4,2.4,0,0,0-.12.38,1.73,1.73,0,0,0,0,.68,1.64,1.64,0,0,0,.23.64,1.8,1.8,0,0,0,.92.78,1.53,1.53,0,0,0,.59.13s0,0,0,0,0,0,0,.05a2,2,0,0,1-.63.4A1.63,1.63,0,0,1,9,10Z"/><path d="M10.05,1.84s0,.06,0,.09-.19.23-.29.35-.3.35-.44.53-.55.65-.82,1-.53.63-.79.94L7,5.55c-.23.26-.45.53-.68.8l-.59.7L5,7.86l-.69.82-.9,1.07-.27.31a.12.12,0,0,1-.18,0Q2.9,10,3,9.9l.36-.43c.23-.27.46-.54.68-.82l.47-.54.6-.71c.15-.19.31-.37.47-.56l.58-.69.59-.7.69-.82.47-.55c.19-.24.39-.47.59-.71l.6-.7L9.64,2a1.79,1.79,0,0,1,.22-.25.09.09,0,0,1,.13,0A.09.09,0,0,1,10.05,1.84Z"/><path d="M2.39,5.45a.13.13,0,0,1-.07.11l-.74.34a.43.43,0,0,1-.12,0,.12.12,0,0,1-.14-.06.13.13,0,0,1,.06-.17l.32-.15.5-.23A.12.12,0,0,1,2.39,5.45Z"/><path d="M6.59,3.09a.12.12,0,0,1,0-.09l.63-.66a.11.11,0,0,1,.18,0c.06,0,.05.12,0,.18s-.35.37-.53.56-.06.09-.12.12a.11.11,0,0,1-.11,0A.14.14,0,0,1,6.59,3.09Z"/><path d="M3.53,7.1c0,.06,0,.09-.07.13l-.54.57-.07.07a.12.12,0,0,1-.16-.18l.39-.41L3.32,7a.12.12,0,0,1,.21.08Z"/><path d="M2.62,3.31a.08.08,0,0,1-.08,0L1.83,2.7a.12.12,0,0,1,0-.17.11.11,0,0,1,.17,0l.42.34.27.23a.14.14,0,0,1,.07.12C2.74,3.27,2.7,3.31,2.62,3.31Z"/><path d="M4.62,1.81V1.37c0-.1,0-.14.11-.14s.13.05.13.14,0,.28,0,.42,0,.32,0,.47-.09.17-.18.12a.11.11,0,0,1-.06-.11V1.81Z"/></g></svg>