<svg xmlns="http://www.w3.org/2000/svg" viewBox="0 0 11.34 11.34"><g id="Layer_3" data-name="Layer 3"><path d="M8.69,1.23,9.87,4.06l0,.05L7,3.45l.39-.53c.15-.2.15-.19-.06-.3a3.42,3.42,0,0,0-3.92.71,3.33,3.33,0,0,0-.94,2.34A3.4,3.4,0,0,0,9,7a4.44,4.44,0,0,0,.21-.71c0-.15.1-.2.24-.17l.58.11c.17,0,.22.11.18.3a4.46,4.46,0,0,1-.83,1.84A4.33,4.33,0,0,1,6.77,10a4.23,4.23,0,0,1-3.2-.57,4.3,4.3,0,0,1-2-2.87,4.29,4.29,0,0,1,.59-3.25A4.33,4.33,0,0,1,4.51,1.48a4.23,4.23,0,0,1,2.61,0A6.49,6.49,0,0,1,8,1.83c.1,0,.17,0,.24-.05S8.52,1.44,8.69,1.23Z"/></g></svg>